<?xml version="1.0" encoding="utf-8"?>
<svg version="1.1" xmlns:xlink="http://www.w3.org/1999/xlink" width="27px" height="32px" xmlns="http://www.w3.org/2000/svg">
  <g transform="matrix(1 0 0 1 -431 -38 )">
    <path d="M 26.820703125 23.135416666666664  C 26.940234375 24.184027777777775  27 25.29861111111111  27 26.479166666666668  C 27 27.993055555555557  26.560546875 29.291666666666668  25.681640625 30.375  C 24.802734375000004 31.458333333333332  23.74453125 32  22.50703125 32  L 4.49296875 32  C 3.25546875 32  2.1972656250000004 31.458333333333332  1.3183593750000002 30.375  C 0.4394531250000001 29.291666666666668  0 27.993055555555557  0 26.479166666666668  C 0 25.29861111111111  0.05976562500000014 24.184027777777775  0.17929687500000016 23.135416666666664  C 0.29882812500000017 22.08680555555555  0.5203125000000001 21.03125  0.8437500000000002 19.96875  C 1.1671875000000003 18.90625  1.578515625 17.99652777777778  2.077734375 17.239583333333336  C 2.576953125 16.482638888888886  3.237890625 15.864583333333332  4.060546875 15.385416666666668  C 4.883203125 14.90625  5.828906250000001 14.666666666666668  6.897656250000001 14.666666666666668  C 8.73984375 16.444444444444443  10.940625 17.333333333333336  13.5 17.333333333333336  C 16.059375000000003 17.333333333333336  18.26015625 16.444444444444443  20.10234375 14.666666666666668  C 21.17109375 14.666666666666668  22.116796875 14.90625  22.939453125 15.385416666666668  C 23.762109375 15.864583333333332  24.423046875000004 16.482638888888886  24.922265625 17.239583333333336  C 25.421484375000002 17.99652777777778  25.8328125 18.90625  26.15625 19.96875  C 26.479687500000004 21.03125  26.701171875000004 22.08680555555555  26.820703125 23.135416666666664  Z M 19.226953125 2.34375  C 20.808984375 3.90625  21.6 5.791666666666668  21.6 8  C 21.6 10.208333333333332  20.808984375 12.09375  19.226953125 13.65625  C 17.644921875 15.21875  15.735937499999999 16  13.5 16  C 11.2640625 16  9.355078125 15.21875  7.773046875 13.65625  C 6.191015625 12.09375  5.4 10.208333333333332  5.4 8  C 5.4 5.791666666666668  6.191015625 3.90625  7.773046875 2.34375  C 9.355078125 0.78125  11.2640625 0  13.5 0  C 15.735937499999999 0  17.644921875 0.78125  19.226953125 2.34375  Z " fill-rule="nonzero" fill="#72a046" stroke="none" transform="matrix(1 0 0 1 431 38 )" />
  </g>
</svg>