<?xml version="1.0" encoding="utf-8"?>
<svg version="1.1" xmlns:xlink="http://www.w3.org/1999/xlink" width="22px" height="20px" xmlns="http://www.w3.org/2000/svg">
  <g transform="matrix(1 0 0 1 -169 -620 )">
    <path d="M 18.120535714285715 10.729166666666664  C 19.659226190476193 9.097222222222221  20.42857142857143 7.552083333333332  20.42857142857143 6.09375  C 20.42857142857143 5.390625  20.340587797619047 4.769965277777777  20.164620535714285 4.231770833333332  C 19.988653273809526 3.693576388888886  19.76357886904762 3.266059027777777  19.48939732142857 2.94921875  C 19.215215773809526 2.632378472222221  18.88169642857143 2.374131944444444  18.488839285714285 2.1744791666666674  C 18.095982142857142 1.9748263888888862  17.711309523809526 1.8402777777777768  17.33482142857143 1.7708333333333326  C 16.958333333333336 1.7013888888888862  16.557291666666668 1.6666666666666674  16.13169642857143 1.6666666666666674  C 15.706101190476193 1.6666666666666674  15.247767857142856 1.77734375  14.756696428571429 1.9986979166666674  C 14.265625 2.2200520833333326  13.81343005952381 2.4978298611111094  13.400111607142856 2.83203125  C 12.986793154761907 3.166232638888886  12.6328125 3.478732638888886  12.338169642857144 3.76953125  C 12.043526785714288 4.060329861111109  11.797991071428573 4.327256944444445  11.6015625 4.5703125  C 11.454241071428573 4.761284722222221  11.253720238095239 4.856770833333332  11 4.856770833333332  C 10.746279761904763 4.856770833333332  10.545758928571429 4.761284722222221  10.3984375 4.5703125  C 10.202008928571429 4.327256944444445  9.956473214285715 4.060329861111109  9.661830357142858 3.76953125  C 9.3671875 3.478732638888886  9.013206845238097 3.166232638888886  8.599888392857142 2.83203125  C 8.186569940476192 2.4978298611111094  7.734375 2.2200520833333326  7.243303571428572 1.9986979166666674  C 6.752232142857142 1.77734375  6.293898809523811 1.6666666666666674  5.868303571428572 1.6666666666666674  C 5.442708333333334 1.6666666666666674  5.041666666666668 1.7013888888888862  4.665178571428571 1.7708333333333326  C 4.288690476190477 1.8402777777777768  3.904017857142857 1.9748263888888862  3.511160714285714 2.1744791666666674  C 3.118303571428571 2.374131944444444  2.7847842261904763 2.632378472222221  2.510602678571429 2.94921875  C 2.236421130952381 3.266059027777777  2.0113467261904763 3.693576388888886  1.8353794642857144 4.231770833333332  C 1.6594122023809528 4.769965277777777  1.5714285714285714 5.390625  1.5714285714285714 6.09375  C 1.5714285714285714 7.552083333333332  2.336681547619048 9.092881944444445  3.8671875 10.716145833333336  L 11 18.0078125  L 18.120535714285715 10.729166666666664  Z M 20.440848214285715 1.6145833333333326  C 21.48028273809524 2.690972222222221  22 4.184027777777777  22 6.09375  C 22 8.012152777777777  21.062872023809526 9.965277777777777  19.18861607142857 11.953125  L 11.540178571428571 19.765625  C 11.392857142857144 19.921875  11.21279761904762 20  11 20  C 10.787202380952381 20  10.607142857142858 19.921875  10.459821428571429 19.765625  L 2.799107142857143 11.927083333333336  C 2.717261904761905 11.85763888888889  2.6047247023809526 11.744791666666664  2.4614955357142856 11.588541666666664  C 2.318266369047619 11.432291666666664  2.0911458333333335 11.148003472222223  1.7801339285714286 10.735677083333336  C 1.4691220238095237 10.323350694444443  1.1908482142857144 9.900173611111109  0.9453125 9.466145833333332  C 0.6997767857142857 9.032118055555555  0.48084077380952384 8.506944444444445  0.2885044642857143 7.890625  C 0.09616815476190477 7.274305555555554  0 6.675347222222221  0 6.09375  C 0 4.184027777777777  0.5197172619047619 2.690972222222221  1.5591517857142856 1.6145833333333326  C 2.5985863095238098 0.5381944444444442  4.034970238095238 0  5.868303571428572 0  C 6.3757440476190474 0  6.893415178571428 0.09331597222222099  7.421316964285714 0.2799479166666674  C 7.94921875 0.4665798611111094  8.440290178571429 0.718315972222221  8.89453125 1.03515625  C 9.348772321428573 1.3519965277777768  9.739583333333336 1.6493055555555536  10.066964285714285 1.9270833333333326  C 10.394345238095239 2.2048611111111094  10.705357142857142 2.5  11 2.8125  C 11.294642857142856 2.5  11.605654761904763 2.2048611111111094  11.933035714285715 1.9270833333333326  C 12.260416666666668 1.6493055555555536  12.651227678571429 1.3519965277777768  13.10546875 1.03515625  C 13.559709821428571 0.718315972222221  14.05078125 0.4665798611111094  14.578683035714285 0.2799479166666674  C 15.106584821428571 0.09331597222222099  15.624255952380954 0  16.13169642857143 0  C 17.965029761904763 0  19.401413690476193 0.5381944444444442  20.440848214285715 1.6145833333333326  Z " fill-rule="nonzero" fill="#f5ae45" stroke="none" transform="matrix(1 0 0 1 169 620 )" />
  </g>
</svg>